<?xml version="1.0" encoding="utf-8"?>
<!-- Generator: Adobe Illustrator 15.0.0, SVG Export Plug-In . SVG Version: 6.00 Build 0)  -->
<!DOCTYPE svg PUBLIC "-//W3C//DTD SVG 1.1//EN" "http://www.w3.org/Graphics/SVG/1.1/DTD/svg11.dtd">
<svg version="1.1" id="图层_1" xmlns="http://www.w3.org/2000/svg" xmlns:xlink="http://www.w3.org/1999/xlink" x="0px" y="0px"
	 width="314.777px" height="105.055px" viewBox="0 0 314.777 105.055" enable-background="new 0 0 314.777 105.055"
	 xml:space="preserve">
<g>
	<path fill="#262626" d="M140.461,74.325c-7.041-1.511-9.126-2.434-15.432-5.085c-1.037-0.418-2.146-0.624-3.188-0.698
		c-10.605-0.688-20.442-8.485-20.442-23.794c0-14.127,8.87-24.636,22.873-24.636c14.201,0,22.038,10.854,22.038,23.657
		c0,10.648-4.925,18.168-11.019,20.951v0.277c3.53,1.044,6.017,1.182,9.685,1.874L140.461,74.325z M123.94,61.879
		c8.855,0,13.918-7.494,13.918-17.706c0-9.51-4.977-17.391-13.918-17.391c-8.939,0-14.096,7.803-14.096,17.62
		c0,9.982,5.241,17.477,14.005,17.477H123.94z"/>
</g>
<g>
	<path fill="#262626" d="M191.362,74.325c-7.042-1.511-9.125-2.434-15.432-5.085c-1.041-0.418-2.156-0.624-3.195-0.698
		c-10.594-0.688-20.436-8.485-20.436-23.794c0-14.127,8.864-24.636,22.858-24.636c14.217,0,22.043,10.854,22.043,23.657
		c0,10.648-4.913,18.168-11.021,20.951v0.277c3.535,1.044,6.029,1.182,9.694,1.874L191.362,74.325z M174.834,61.879
		c8.858,0,13.924-7.494,13.924-17.706c0-9.51-4.987-17.391-13.924-17.391c-8.93,0-14.091,7.803-14.091,17.62
		c0,9.982,5.23,17.477,14,17.477H174.834z"/>
</g>
<path fill="#262626" d="M245.174,19.776c5.688,0,9.541-0.082,11.548-0.251c-0.337,1.172-0.503,4.436-0.503,9.79v36.899
	c0.166,3.346-0.418,5.437-1.756,6.276c-1.341,1.004-4.605,1.669-9.789,2.008c-0.169-2.512-1.094-4.605-2.762-6.275
	c4.18,0.337,6.691,0.337,7.53,0c1.005-0.164,1.419-1.421,1.256-3.767v-39.66h-39.913v37.652c0,5.522,0.165,9.202,0.502,11.046
	h-6.525c0.5-3.182,0.752-6.778,0.752-10.795V30.319c0-5.856-0.086-9.453-0.252-10.794c1.337,0.169,4.602,0.251,9.791,0.251H245.174z
	 M220.323,46.384c-2.006-5.02-4.516-9.62-7.529-13.805c1.339-0.502,2.926-1.005,4.769-1.508c1.84,3.35,3.599,6.696,5.271,10.041
	c1.34-4.181,2.26-8.533,2.764-13.053c0.836,0.337,2.09,0.839,3.766,1.507c1.84,0.67,2.674,1.003,2.51,1.003l-0.252,0.252
	c-0.501,0.502-1.004,1.256-1.506,2.259c-0.338,0.839-0.84,2.177-1.506,4.017c-1.173,3.181-2.26,6.11-3.264,8.786
	c1.84,3.35,3.68,6.863,5.523,10.543c-1.844,0.67-3.516,1.593-5.02,2.762c-0.338-1.508-1.005-3.347-2.01-5.523
	c-0.502-1.339-0.839-2.259-1.006-2.762c-0.336,0.672-0.837,1.593-1.504,2.762c-2.848,6.024-4.688,9.538-5.521,10.543
	c-1.176-0.503-2.762-1.254-4.771-2.259C214.715,57.43,217.814,52.244,220.323,46.384z M235.385,43.874
	c-1.172-2.51-3.012-5.605-5.523-9.288c0.334-0.165,0.836-0.333,1.509-0.502c1.167-0.334,2.259-0.835,3.263-1.505
	c1.336,2.847,2.592,5.521,3.764,8.032c0.504,1.341,0.838,1.843,1.005,1.505c1.339-4.683,2.175-9.036,2.511-13.053
	c0.502,0.169,1.338,0.338,2.511,0.503c2.843,0.67,4.181,1.091,4.017,1.255l-0.252,0.25c-0.502,0.503-0.922,1.091-1.256,1.757
	c-0.168,0.502-0.419,1.342-0.753,2.511c-1.505,4.855-2.929,8.786-4.267,11.799c3.012,6.526,5.102,10.961,6.275,13.304
	c-2.68,1.173-4.438,1.926-5.271,2.259c-1.004-3.176-2.176-6.691-3.515-10.543c-0.337,0.671-1.09,1.845-2.259,3.515
	c-2.177,3.853-3.934,6.777-5.271,8.785c-0.168,0-0.67-0.164-1.507-0.502c-2.009-0.835-3.515-1.337-4.517-1.506
	c5.184-4.016,8.949-9.119,11.295-15.312C236.641,46.302,236.051,45.215,235.385,43.874z"/>
<path fill="#262626" d="M277.844,28.631c0,0.171-0.171,0.426-0.509,0.765c-0.853,1.019-1.192,2.38-1.02,4.076
	c0.339,13.08-0.253,21.742-1.782,25.987c-1.191,4.075-4.928,8.49-11.212,13.248c-1.87-1.871-3.567-3.146-5.095-3.822
	c6.791-3.396,10.699-7.217,11.72-11.464c0.849-2.377,1.356-5.605,1.528-9.682c0.168-3.396,0.168-10.02,0-19.872
	C275.55,27.867,277.673,28.123,277.844,28.631z M280.137,56.401c0.338-2.205,0.421-5.772,0.254-10.701V24.554h-13.502V46.72
	c-0.172,4.419,0,7.985,0.509,10.701h-5.604c0.338-2.716,0.422-6.115,0.256-10.191V30.67c0-5.096-0.172-8.746-0.511-10.957
	c2.206,0.344,6.198,0.428,11.976,0.256c4.751,0.172,8.828,0,12.229-0.51c-0.343,2.21-0.509,5.184-0.509,8.918V46.72
	c0,4.077,0.166,7.305,0.509,9.682H280.137z M283.705,70.924c-2.38-3.567-5.269-6.963-8.663-10.192l4.076-3.057
	c3.906,3.229,7.135,6.624,9.684,10.191L283.705,70.924z M309.436,26.084c2.715,0,5.096-0.255,7.133-0.766
	c-0.17,3.738-0.342,10.362-0.506,19.872c-0.344,11.383-0.6,18.516-0.766,21.402c-0.174,2.714-1.109,4.497-2.805,5.35
	c-1.361,1.02-4.584,1.783-9.68,2.292c0-2.381-1.02-4.501-3.059-6.368c4.244,0.677,6.963,0.677,8.154,0
	c1.527-0.51,2.293-2.294,2.293-5.351c0-1.696,0.084-3.733,0.254-6.114c0.166-3.567,0.338-12.142,0.51-25.731h-16.05
	c-2.38,4.928-4.076,8.068-5.096,9.426c-0.681-1.187-2.127-2.294-4.331-3.312c5.095-7.302,7.981-14.436,8.66-21.401
	c4.416,0.343,6.963,0.853,7.645,1.529l-0.256,0.51c-1.699,1.698-3.398,4.585-5.094,8.662H309.436z M302.049,54.873
	c-0.682-3.058-1.529-5.943-2.549-8.663l4.844-0.765c2.035,5.267,3.564,10.617,4.582,16.051l-5.859,0.765
	c0-1.529-0.088-2.885-0.254-4.075c-6.966,1.36-11.552,2.291-13.757,2.802l-1.274-4.331c2.376-0.339,4.841-7.389,7.39-21.146
	c4.414,0.51,6.623,1.02,6.623,1.529c-0.682,0.852-1.699,2.89-3.058,6.114c-1.868,4.586-3.654,8.749-5.351,12.484L302.049,54.873z"/>
<path fill="#BD1B21" d="M-0.583,19.849v82.66h86.394v-82.66"/>
<path fill="#BD1B21" d="M42.74,1.146c-15.226,0-27.569,12.343-27.569,27.569c0,15.226,12.343,27.568,27.569,27.568
	S70.309,43.94,70.309,28.715C70.309,13.488,57.966,1.146,42.74,1.146z M42.74,48.703c-11.039,0-19.988-8.949-19.988-19.988
	S31.701,8.727,42.74,8.727s19.988,8.949,19.988,19.988S53.779,48.703,42.74,48.703z"/>
<path fill="#FFFFFF" d="M64.148,58.415c1.268-3.348-0.457-6.109-1.258-7.141c-0.052-0.17-0.139-0.265-0.24-0.295
	c-0.045-0.052-0.08-0.09-0.1-0.111c0.197-10.339-8.78-19.783-19.508-19.783c-10.56,0-19.169,8.054-19.492,19.31
	c-0.236,0.412-0.492,0.874-0.779,1.429c-0.021,0.04-0.032,0.08-0.053,0.118c-0.938,1.113-0.662,2.501-0.662,2.501
	s-0.901,0.37-0.815,2.753c0.018,0.482,0.117,0.962,0.276,1.436c0.007,0.042,0.013,0.085,0.021,0.129
	c0.006,0.048,0.015,0.098,0.022,0.147c0.008,0.049,0.015,0.098,0.024,0.146c0,0.007,0,0.013,0.002,0.021
	c-2.959,3.246-8.111,10.318-5.294,17.869c0.614,1.498,3.053-0.25,5.055-3.809c0.803,2.674,2.215,5.124,4.086,7.221
	c-1.279,0.386-2.413,1.024-3.254,2.059c-0.6,0.711-0.881,1.363-0.437,1.641c-1.074,0.845-0.79,3.2,0.39,4.269
	c1.323,1.188,3.593,2.303,7.678,2.603c6.332,0.463,9.841-1.897,11.299-3.235c0.456,0.028,0.911,0.054,1.373,0.054
	c0.606,0,1.204-0.025,1.797-0.071c1.44,1.334,4.942,3.718,11.292,3.253c4.081-0.3,6.372-1.414,7.689-2.603
	c1.2-1.068,1.462-3.424,0.401-4.269c0.436-0.277,0.153-0.93-0.442-1.641c-0.925-1.13-2.197-1.78-3.624-2.151
	c0.01-0.011,0.019-0.024,0.029-0.036c1.935-2.207,3.37-4.787,4.128-7.61c1.798,3.798,4.191,5.784,4.898,4.31
	C72.005,69.331,66.866,61.699,64.148,58.415z"/>
<g>
	<path fill="#262626" d="M102.339,84.744c1.011-0.24,2.635-0.399,4.232-0.399c2.315,0,3.807,0.399,4.898,1.304
		c0.932,0.692,1.517,1.758,1.517,3.168c0,1.757-1.171,3.274-3.035,3.939v0.08c1.704,0.399,3.7,1.811,3.7,4.473
		c0,1.544-0.612,2.741-1.544,3.594c-1.225,1.144-3.248,1.677-6.176,1.677c-1.597,0-2.822-0.106-3.593-0.214V84.744z M104.655,92.091
		h2.103c2.423,0,3.86-1.305,3.86-3.035c0-2.076-1.571-2.928-3.913-2.928c-1.065,0-1.677,0.08-2.049,0.16V92.091z M104.655,100.662
		c0.479,0.08,1.118,0.106,1.943,0.106c2.396,0,4.605-0.878,4.605-3.487c0-2.422-2.103-3.46-4.632-3.46h-1.917V100.662z"/>
	<path fill="#262626" d="M126.361,84.478v10.647c0,3.993,1.783,5.697,4.179,5.697c2.635,0,4.366-1.757,4.366-5.697V84.478h2.342
		v10.488c0,5.51-2.901,7.746-6.788,7.746c-3.674,0-6.442-2.076-6.442-7.666V84.478H126.361z"/>
	<path fill="#262626" d="M152.745,102.419v-7.613l-5.697-10.328h2.662l2.529,4.951c0.666,1.357,1.225,2.449,1.783,3.7h0.053
		c0.479-1.171,1.118-2.343,1.81-3.7l2.583-4.951h2.609l-5.99,10.302v7.64H152.745z"/>
	<path fill="#262626" d="M169.818,101.035c0-0.959,0.666-1.678,1.597-1.678c0.932,0,1.571,0.692,1.571,1.678
		c0,0.958-0.639,1.677-1.624,1.677C170.458,102.712,169.818,101.993,169.818,101.035z"/>
	<path fill="#262626" d="M198.337,105.055c-2.422-0.64-4.792-1.357-6.868-2.076c-0.399-0.134-0.746-0.267-1.091-0.267
		c-4.286-0.159-7.906-3.301-7.906-9.104c0-5.75,3.487-9.45,8.332-9.45c4.898,0,8.065,3.78,8.065,9.077
		c0,4.632-2.129,7.56-5.11,8.625v0.106c1.783,0.452,3.727,0.878,5.244,1.145L198.337,105.055z M196.42,93.369
		c0-3.621-1.863-7.321-5.669-7.321c-3.914,0-5.83,3.62-5.83,7.507c0,3.833,2.076,7.268,5.75,7.268
		C194.344,100.822,196.42,97.441,196.42,93.369z"/>
	<path fill="#262626" d="M224.169,105.055c-2.423-0.64-4.792-1.357-6.868-2.076c-0.399-0.134-0.746-0.267-1.092-0.267
		c-4.285-0.159-7.906-3.301-7.906-9.104c0-5.75,3.487-9.45,8.332-9.45c4.898,0,8.066,3.78,8.066,9.077
		c0,4.632-2.13,7.56-5.111,8.625v0.106c1.783,0.452,3.727,0.878,5.244,1.145L224.169,105.055z M222.252,93.369
		c0-3.621-1.863-7.321-5.67-7.321c-3.914,0-5.83,3.62-5.83,7.507c0,3.833,2.076,7.268,5.75,7.268S222.252,97.441,222.252,93.369z"/>
	<path fill="#262626" d="M234.562,101.035c0-0.959,0.665-1.678,1.597-1.678s1.57,0.692,1.57,1.678c0,0.958-0.639,1.677-1.623,1.677
		C235.201,102.712,234.562,101.993,234.562,101.035z"/>
	<path fill="#262626" d="M260.792,101.86c-0.826,0.426-2.557,0.852-4.739,0.852c-5.058,0-8.837-3.194-8.837-9.104
		c0-5.644,3.807-9.424,9.369-9.424c2.21,0,3.647,0.479,4.26,0.799l-0.586,1.891c-0.852-0.427-2.103-0.746-3.594-0.746
		c-4.205,0-7,2.688-7,7.4c0,4.419,2.529,7.214,6.867,7.214c1.438,0,2.875-0.293,3.807-0.745L260.792,101.86z"/>
	<path fill="#262626" d="M286.444,93.262c0,6.149-3.754,9.45-8.332,9.45c-4.766,0-8.065-3.7-8.065-9.13
		c0-5.697,3.514-9.424,8.306-9.424C283.276,84.158,286.444,87.912,286.444,93.262z M272.496,93.528c0,3.859,2.076,7.294,5.749,7.294
		c3.674,0,5.75-3.381,5.75-7.453c0-3.594-1.863-7.321-5.723-7.321C274.412,86.048,272.496,89.615,272.496,93.528z"/>
	<path fill="#262626" d="M312.063,94.54c-0.133-2.503-0.293-5.537-0.293-7.746h-0.053c-0.639,2.076-1.357,4.339-2.262,6.814
		l-3.168,8.704h-1.758l-2.928-8.545c-0.852-2.556-1.545-4.844-2.049-6.974h-0.055c-0.053,2.235-0.186,5.218-0.346,7.933
		l-0.478,7.692h-2.21l1.251-17.941h2.955l3.061,8.678c0.746,2.21,1.332,4.18,1.811,6.043h0.053c0.48-1.811,1.119-3.779,1.918-6.043
		l3.193-8.678h2.955l1.117,17.941h-2.289L312.063,94.54z"/>
</g>
<line fill="none" stroke="#808080" x1="-0.583" y1="131.301" x2="-0.583" y2="-10.857"/>
<line fill="none" stroke="#808080" x1="15.171" y1="131.301" x2="15.171" y2="-10.857"/>
<line fill="none" stroke="#808080" x1="69.934" y1="131.301" x2="69.934" y2="-10.857"/>
<line fill="none" stroke="#808080" x1="85.687" y1="131.301" x2="85.687" y2="-10.857"/>
<line fill="none" stroke="#808080" x1="101.441" y1="131.301" x2="101.441" y2="-10.857"/>
<line fill="none" stroke="#808080" x1="146.451" y1="131.301" x2="146.451" y2="-10.857"/>
<line fill="none" stroke="#808080" x1="152.078" y1="131.301" x2="152.078" y2="-10.857"/>
<line fill="none" stroke="#808080" x1="256.351" y1="131.301" x2="256.351" y2="-10.857"/>
<line fill="none" stroke="#808080" x1="261.977" y1="131.301" x2="261.977" y2="-10.857"/>
<line fill="none" stroke="#808080" x1="197.463" y1="131.301" x2="197.463" y2="-10.857"/>
<line fill="none" stroke="#808080" x1="205.339" y1="131.301" x2="205.339" y2="-10.857"/>
<line fill="none" stroke="#808080" x1="316.365" y1="131.301" x2="316.365" y2="-10.857"/>
<line fill="none" stroke="#808080" x1="332.119" y1="131.301" x2="332.119" y2="-10.857"/>
<line fill="none" stroke="#808080" x1="-23.463" y1="1.146" x2="345.996" y2="1.146"/>
<line fill="none" stroke="#808080" x1="-23.463" y1="19.9" x2="345.996" y2="19.9"/>
<line fill="none" stroke="#808080" x1="-23.463" y1="31.152" x2="345.996" y2="31.152"/>
<line fill="none" stroke="#808080" x1="-23.463" y1="91.542" x2="345.996" y2="91.542"/>
<line fill="none" stroke="#808080" x1="-23.463" y1="74.663" x2="345.996" y2="74.663"/>
<line fill="none" stroke="#808080" x1="-23.463" y1="84.04" x2="345.996" y2="84.04"/>
<line fill="none" stroke="#808080" x1="-23.463" y1="102.794" x2="345.996" y2="102.794"/>
<line fill="none" stroke="#808080" x1="-23.463" y1="118.548" x2="345.996" y2="118.548"/>
<path fill="none" stroke="#808080" d="M42.74,1.146c-15.226,0-27.569,12.343-27.569,27.569c0,15.226,12.343,27.568,27.569,27.568
	S70.309,43.94,70.309,28.715C70.309,13.488,57.966,1.146,42.74,1.146z M42.74,48.703c-11.039,0-19.988-8.949-19.988-19.988
	S31.701,8.727,42.74,8.727s19.988,8.949,19.988,19.988S53.779,48.703,42.74,48.703z"/>
</svg>
